Funtastic Children's favourites brings you a fantastic line up! This bumper collection includes Fireman Sam and Pingu, the much loved Thomas & Friends, Bob the Builder and a selection of all your child's favourites. This veritable 'Funfest' is bound to keep your child grinning from ear to ear!

Episodes Comprise:

1. Fireman sam: Mummy's little Pumpkin
2. Thomas And Friends: Thomas And The Tuba
3. Angelina Ballerina: Angelina In The Wings
4. Pingu: Pingu Finishes The Job
5. Barney: Up Down And Around
6. Kipper: The River Trip
7. Rubbadubbers: Terence The Spy
8. The Wiggles: Dressing Up
9. Bob The Builder: Mr Beasley's Noisy Pipes

Format : MPEG-4
Format profile : Base Media / Version 2
Codec ID : mp42
File size : 1.72 GiB
Duration : 1h 53mn
Overall bit rate : 2 164 Kbps
Encoded date : UTC 2010-03-17 19:28:10
Tagged date : UTC 2010-03-18 01:06:16
Writing application : HandBrake 0.9.3 2008112300

Video
ID : 1
Format : AVC
Format/Info : Advanced Video Codec
Format profile : Main@L4.0
Format settings, CABAC : Yes
Format settings, ReFrames : 3 frames
Codec ID : avc1
Codec ID/Info : Advanced Video Coding
Duration : 1h 53mn
Bit rate mode : Variable
Bit rate : 2 000 Kbps
Width : 704 pixels
Height : 576 pixels
Display aspect ratio : 4:3
Frame rate mode : Variable
Frame rate : 25.000 fps
Minimum frame rate : 12.500 fps
Maximum frame rate : 124.352 fps
Resolution : 8 bits
Colorimetry : 4:2:0
Scan type : Progressive
Bits/(Pixel*Frame) : 0.197
Stream size : 1.59 GiB (92%)
Writing library : x264 core 65

Language : English
Encoded date : UTC 2010-03-17 19:28:10
Tagged date : UTC 2010-03-18 01:06:16
Color primaries : BT.601-6 525, BT.1358 525, BT.1700 NTSC, SMPTE 170M
Transfer characteristics : BT.709-5, BT.1361
Matrix coefficients : BT.601-6 525, BT.1358 525, BT.1700 NTSC, SMPTE 170M

Audio
ID : 2
Format : AAC
Format/Info : Advanced Audio Codec
Format version : Version 4
Format profile : LC
Format settings, SBR : No
Codec ID : 40
Duration : 1h 53mn
Bit rate mode : Variable
Bit rate : 160 Kbps
Maximum bit rate : 262 Kbps
Channel(s) : 2 channels
Channel positions : L R
Sampling rate : 48.0 KHz
Stream size : 130 MiB (7%)
Language : English
Encoded date : UTC 2010-03-17 19:28:10
Tagged date : UTC 2010-03-18 01:06:13

